<?xml version="1.0" standalone="no"?>
<!DOCTYPE svg PUBLIC "-//W3C//DTD SVG 20010904//EN"
 "http://www.w3.org/TR/2001/REC-SVG-20010904/DTD/svg10.dtd">
<svg version="1.0" xmlns="http://www.w3.org/2000/svg"
 width="1024.000000pt" height="1024.000000pt" viewBox="0 0 1024.000000 1024.000000"
 preserveAspectRatio="xMidYMid meet">
<metadata>
Created by potrace 1.14, written by Peter Selinger 2001-2017
</metadata>
<g transform="translate(0.000000,1024.000000) scale(0.100000,-0.100000)"
fill="#000000" stroke="none">
<path d="M3780 9772 c0 -5 -8 -9 -17 -8 -10 0 -34 -6 -53 -13 -19 -8 -37 -15
-40 -16 -40 -15 -60 -26 -60 -35 0 -6 -4 -8 -10 -5 -5 3 -22 -1 -38 -9 -16 -8
-32 -12 -36 -9 -3 4 -6 1 -6 -6 0 -7 -4 -9 -10 -6 -5 3 -10 1 -10 -4 0 -6 -9
-11 -20 -11 -11 0 -20 -4 -20 -10 0 -5 -3 -9 -7 -8 -9 1 -26 -5 -101 -38 -29
-13 -57 -24 -62 -24 -6 0 -10 -5 -10 -11 0 -5 -4 -7 -10 -4 -5 3 -10 1 -10 -5
0 -6 -4 -9 -9 -6 -10 7 -61 -16 -61 -27 0 -5 -4 -6 -9 -2 -5 3 -12 1 -16 -5
-3 -5 -15 -10 -26 -10 -10 0 -19 -5 -19 -11 0 -5 -5 -7 -10 -4 -6 3 -23 -3
-39 -14 -15 -11 -31 -18 -35 -14 -3 3 -6 0 -6 -7 0 -7 -3 -10 -6 -7 -4 3 -16
1 -28 -5 -11 -7 -28 -13 -36 -14 -8 -2 -16 -7 -18 -13 -2 -5 -10 -7 -18 -4 -8
3 -14 0 -14 -6 0 -6 -9 -11 -21 -11 -11 0 -17 -4 -14 -10 3 -6 -1 -7 -9 -4 -9
3 -16 1 -16 -5 0 -6 -3 -10 -7 -9 -17 3 -63 -15 -63 -25 0 -6 -3 -7 -6 -4 -4
4 -19 0 -33 -8 -21 -12 -65 -31 -91 -40 -3 -1 -18 -8 -35 -15 -16 -7 -33 -13
-37 -12 -5 1 -8 -3 -8 -10 0 -6 -3 -8 -6 -5 -4 4 -20 -3 -37 -15 -18 -13 -27
-16 -22 -7 5 9 1 8 -12 -4 -11 -9 -23 -14 -26 -10 -4 3 -7 2 -7 -4 0 -6 -12
-14 -26 -17 -14 -4 -49 -18 -77 -31 -28 -14 -57 -25 -64 -25 -7 0 -13 -5 -13
-11 0 -5 -4 -8 -9 -5 -5 3 -14 -1 -21 -9 -7 -8 -17 -12 -22 -9 -6 4 -14 1 -18
-5 -4 -7 -17 -13 -28 -14 -12 -1 -22 -5 -22 -9 0 -4 -9 -8 -20 -8 -11 0 -20
-5 -20 -11 0 -5 -4 -8 -9 -4 -5 3 -12 1 -16 -5 -4 -6 -11 -8 -16 -5 -5 4 -9 2
-9 -4 0 -6 -12 -14 -27 -17 -16 -4 -43 -15 -60 -26 -18 -11 -33 -17 -33 -13 0
3 -10 -1 -22 -9 -12 -9 -30 -16 -40 -16 -10 0 -18 -4 -18 -9 0 -5 -13 -11 -29
-14 -16 -3 -35 -13 -44 -21 -8 -8 -17 -13 -20 -10 -2 3 -22 -4 -43 -15 -51
-26 -97 -45 -106 -43 -5 1 -8 -2 -8 -8 0 -5 -9 -10 -20 -10 -11 0 -20 -5 -20
-11 0 -5 -4 -7 -10 -4 -5 3 -10 2 -10 -4 0 -6 -7 -8 -15 -5 -8 4 -15 1 -15 -6
0 -6 -4 -8 -10 -5 -5 3 -10 1 -10 -4 0 -6 -8 -11 -18 -11 -10 0 -22 -3 -26 -7
-7 -8 -11 -9 -37 -12 -5 0 -8 -5 -5 -9 3 -5 -1 -9 -8 -9 -24 0 -126 -45 -126
-56 0 -6 -3 -7 -7 -4 -3 4 -12 2 -20 -4 -7 -6 -13 -8 -13 -4 0 4 -11 0 -25 -9
-14 -9 -25 -14 -25 -11 0 4 -14 -4 -32 -16 -17 -13 -28 -16 -23 -8 5 8 -1 5
-13 -5 -12 -11 -22 -16 -22 -11 0 4 -7 1 -16 -6 -9 -7 -23 -14 -32 -16 -9 -1
-18 -7 -20 -13 -2 -5 -8 -7 -13 -4 -6 3 -16 0 -24 -6 -8 -7 -15 -9 -15 -4 0 5
-4 3 -9 -4 -4 -7 -14 -15 -22 -16 -23 -4 -73 -30 -81 -41 -5 -6 -8 -4 -8 5 0
13 -1 13 -10 0 -5 -8 -13 -15 -17 -15 -4 -1 -18 -6 -31 -13 -12 -7 -27 -10
-32 -7 -6 3 -10 2 -10 -4 0 -5 -16 -15 -35 -21 -19 -6 -33 -15 -30 -20 3 -4
-4 -6 -15 -3 -11 3 -20 0 -20 -6 0 -6 -3 -10 -7 -9 -5 1 -25 -6 -46 -15 -20
-9 -40 -16 -42 -16 -3 0 -20 -8 -38 -18 -17 -9 -34 -18 -37 -18 -12 -3 -66
-31 -77 -40 -7 -5 -19 -16 -28 -23 -8 -7 -15 -10 -15 -6 0 4 -29 -23 -66 -60
-36 -36 -62 -71 -59 -76 3 -6 1 -10 -5 -10 -6 0 -15 -12 -21 -27 -6 -16 -16
-40 -24 -56 -8 -16 -9 -24 -3 -21 7 5 8 2 2 -7 -12 -19 -12 -159 1 -159 5 0 3
-5 -5 -10 -8 -5 -10 -10 -3 -10 6 0 14 -18 18 -40 4 -22 11 -42 16 -46 5 -3 7
-9 5 -13 -3 -4 4 -18 15 -29 11 -12 16 -22 12 -22 -4 0 5 -11 20 -25 15 -14
27 -30 27 -35 0 -6 6 -10 14 -10 8 0 17 -7 20 -16 3 -8 10 -12 16 -9 5 3 10 1
10 -5 0 -6 5 -8 10 -5 6 3 10 2 10 -4 0 -5 9 -8 20 -6 11 2 20 0 20 -5 0 -9
99 -46 113 -42 4 1 7 -3 7 -9 0 -6 7 -9 15 -5 8 3 15 1 15 -4 0 -6 9 -10 19
-10 11 0 23 -4 26 -10 3 -5 15 -10 26 -10 10 0 19 -5 19 -11 0 -5 4 -8 8 -5 5
3 20 -1 35 -9 15 -8 27 -12 27 -9 0 3 15 -3 33 -12 68 -36 70 -36 61 -22 -4 7
2 5 14 -5 11 -11 26 -16 31 -12 6 3 11 3 11 -2 0 -4 11 -13 25 -20 19 -8 23
-8 18 0 -3 7 3 3 15 -7 12 -11 22 -16 22 -13 0 3 12 0 27 -8 15 -8 30 -12 35
-9 4 3 8 2 8 -3 0 -4 17 -13 38 -20 20 -6 55 -20 77 -29 22 -10 43 -17 48 -16
4 1 7 -3 7 -8 0 -5 3 -9 8 -8 4 1 23 -4 42 -11 19 -8 38 -15 43 -16 4 -1 10
-4 15 -5 4 -1 10 -2 15 -1 4 0 7 -4 7 -9 0 -5 3 -9 8 -9 4 1 10 0 15 -1 4 -1
10 -4 15 -5 4 -1 23 -8 42 -16 19 -7 38 -12 43 -11 4 1 7 -3 7 -9 0 -5 5 -7
10 -4 5 3 10 1 10 -6 0 -6 8 -9 18 -7 10 3 23 -1 30 -9 7 -7 22 -13 32 -13 11
0 20 -4 20 -10 0 -5 3 -9 8 -9 24 4 42 -2 36 -13 -5 -8 -2 -9 9 -5 9 3 19 2
23 -4 3 -6 12 -8 20 -5 8 3 14 2 14 -3 0 -5 10 -12 23 -16 12 -4 24 -8 27 -10
3 -1 20 -8 38 -16 30 -13 45 -39 21 -39 -5 0 -7 -5 -4 -10 3 -6 -1 -13 -9 -16
-9 -3 -16 -13 -16 -20 0 -8 -7 -17 -15 -20 -8 -4 -15 -10 -15 -16 0 -5 -6 -16
-12 -23 -32 -36 -38 -46 -38 -65 0 -11 -5 -20 -11 -20 -5 0 -7 -4 -4 -10 3 -5
3 -10 -2 -10 -4 0 -9 -10 -10 -23 -3 -33 -8 -51 -16 -64 -5 -7 -4 -13 2 -13 7
0 7 -9 3 -22 -5 -13 -8 -42 -8 -65 1 -29 -3 -43 -11 -43 -7 0 -13 -4 -13 -9 0
-5 -11 -12 -25 -15 -14 -4 -23 -11 -20 -16 3 -6 0 -10 -7 -10 -15 0 -45 -21
-89 -62 -16 -15 -29 -25 -29 -21 0 3 -9 -4 -20 -17 -11 -13 -20 -28 -20 -34 0
-6 -5 -4 -10 4 -8 13 -10 12 -10 -2 0 -10 -6 -18 -14 -18 -8 0 -18 -9 -21 -20
-4 -11 -10 -18 -15 -15 -5 3 -11 -4 -15 -15 -4 -11 -10 -18 -14 -16 -4 3 -16
-9 -26 -25 -11 -16 -28 -32 -37 -35 -10 -3 -18 -10 -18 -15 0 -6 -11 -21 -25
-34 -13 -14 -22 -25 -20 -25 3 0 -12 -16 -32 -35 -20 -19 -34 -35 -31 -35 4 0
-3 -11 -15 -24 -32 -35 -43 -49 -57 -77 -7 -13 -16 -26 -19 -29 -13 -10 -45
-65 -43 -72 1 -5 -3 -8 -8 -8 -9 0 -34 -49 -30 -59 1 -2 -3 -7 -8 -10 -15 -9
-52 -88 -45 -95 4 -3 1 -6 -5 -6 -7 0 -12 -9 -12 -20 0 -11 -4 -20 -8 -20 -7
0 -12 -21 -16 -67 0 -11 -4 -19 -7 -17 -9 5 -26 -66 -25 -103 1 -17 -2 -29 -6
-26 -6 3 -11 -39 -10 -87 1 -52 14 -156 22 -170 6 -11 8 -20 4 -20 -3 0 1 -11
10 -25 9 -13 16 -31 16 -40 0 -8 5 -15 11 -15 11 0 9 -41 -3 -50 -4 -3 -9 -17
-12 -30 -17 -77 -23 -110 -18 -110 2 0 0 -6 -5 -12 -6 -7 -9 -21 -8 -30 2 -10
0 -18 -4 -18 -4 0 -6 -15 -6 -32 1 -18 -1 -37 -4 -43 -3 -5 -4 -23 -2 -39 2
-18 -1 -26 -8 -22 -8 5 -8 0 -2 -17 6 -14 7 -28 4 -31 -10 -10 -9 -190 0 -203
6 -8 6 -13 -1 -13 -7 0 -8 -11 -1 -32 12 -43 11 -51 -3 -42 -9 5 -8 2 1 -9 8
-10 14 -36 14 -57 0 -22 3 -40 7 -40 4 0 7 -7 7 -16 0 -10 -7 -14 -18 -11 -11
3 -17 0 -16 -7 1 -6 -4 -10 -12 -8 -7 1 -19 -3 -27 -9 -8 -6 -14 -8 -14 -3 0
4 -6 0 -12 -9 -7 -9 -20 -17 -27 -19 -16 -3 -32 -16 -94 -73 -20 -19 -42 -35
-47 -35 -6 0 -9 -3 -8 -7 1 -5 -19 -30 -45 -58 -26 -27 -45 -56 -42 -63 3 -7
0 -10 -5 -7 -6 3 -10 1 -10 -5 0 -6 -4 -8 -10 -5 -5 3 -10 -3 -10 -14 0 -12
-4 -21 -9 -21 -5 0 -14 -13 -21 -30 -7 -16 -16 -30 -20 -30 -7 0 -20 -29 -24
-53 0 -4 -8 -12 -16 -17 -8 -5 -11 -10 -7 -10 5 0 -5 -25 -21 -55 -17 -30 -25
-52 -19 -48 7 4 4 -5 -6 -20 -10 -15 -15 -32 -12 -37 3 -6 1 -10 -4 -10 -6 0
-10 -3 -10 -7 1 -5 0 -10 -1 -13 -2 -7 -8 -31 -15 -65 -3 -16 -11 -32 -17 -36
-7 -4 -7 -9 1 -13 6 -4 8 -13 4 -19 -9 -14 -11 -33 -16 -113 -3 -34 -7 -66
-10 -71 -3 -5 -2 -15 3 -23 5 -8 4 -22 -2 -33 -5 -11 -6 -22 -2 -26 5 -3 9
-19 10 -36 2 -50 11 -111 18 -124 4 -6 1 -11 -6 -11 -10 0 -10 -2 0 -8 7 -5
14 -23 15 -40 1 -18 5 -32 10 -32 4 0 7 -8 7 -19 0 -10 7 -34 15 -54 8 -19 11
-37 8 -41 -4 -3 -1 -6 6 -6 8 0 11 -7 7 -15 -3 -8 -1 -15 5 -15 6 0 9 -7 5
-15 -3 -8 -1 -15 4 -15 6 0 10 -7 10 -15 0 -8 5 -15 10 -15 6 0 9 -3 9 -7 -3
-12 22 -73 30 -73 8 0 36 -62 33 -73 -1 -5 2 -6 8 -2 5 3 10 -1 10 -9 0 -9 4
-16 8 -16 5 0 13 -10 19 -23 15 -32 45 -67 151 -173 52 -51 102 -96 113 -99
10 -4 19 -11 19 -16 0 -5 7 -9 15 -9 8 0 15 -3 15 -8 0 -4 20 -18 45 -32 25
-14 45 -28 45 -33 0 -4 4 -6 9 -2 5 3 16 -2 24 -10 9 -8 22 -15 29 -15 7 0 22
-7 32 -15 10 -8 23 -12 27 -9 5 3 9 0 9 -5 0 -6 5 -11 10 -11 6 0 27 -7 48
-16 20 -9 47 -18 60 -20 13 -1 30 -8 37 -14 8 -7 19 -9 24 -6 5 4 12 2 16 -4
4 -6 11 -8 16 -4 5 3 16 0 24 -6 8 -7 15 -9 15 -5 0 4 7 2 15 -5 12 -10 15
-10 15 0 0 10 3 10 15 0 8 -7 15 -9 15 -5 0 4 8 1 17 -6 15 -12 16 -12 8 1 -7
12 -6 13 6 3 9 -7 41 -14 73 -17 31 -2 60 -6 63 -10 3 -3 12 -1 20 5 8 7 13 7
13 2 0 -6 11 -9 25 -8 23 3 70 -26 60 -37 -3 -3 4 -13 15 -23 11 -10 20 -24
20 -30 0 -7 7 -15 15 -19 8 -3 15 -11 15 -18 0 -7 11 -26 25 -41 14 -15 23
-27 20 -27 -3 0 4 -11 17 -24 13 -13 30 -33 38 -46 8 -13 25 -33 38 -46 12
-13 22 -27 22 -32 0 -6 7 -13 16 -16 9 -4 14 -9 12 -12 -3 -3 16 -28 43 -55
27 -28 49 -53 49 -56 0 -3 19 -24 43 -47 23 -22 41 -44 39 -48 -1 -5 1 -8 6
-8 13 0 72 -58 72 -71 0 -7 3 -10 6 -6 3 3 28 -16 56 -44 27 -27 52 -49 56
-49 4 0 15 -8 24 -18 31 -34 76 -72 86 -72 5 0 13 -7 16 -16 4 -9 9 -14 13
-11 3 4 16 -4 28 -18 13 -13 25 -22 27 -19 3 2 17 -7 31 -20 15 -14 36 -27 47
-31 11 -3 20 -11 20 -16 0 -5 7 -9 15 -9 8 0 15 -5 15 -10 0 -6 3 -9 8 -9 18
3 33 -2 28 -9 -3 -5 11 -14 30 -21 18 -7 34 -16 34 -20 0 -7 27 -19 46 -19 3
-1 14 -11 25 -23 10 -12 19 -19 19 -15 0 4 13 -2 29 -13 15 -11 31 -18 35 -14
3 3 6 1 6 -5 0 -7 7 -12 15 -12 8 0 24 -9 34 -19 11 -11 21 -17 24 -15 2 3 34
-11 70 -30 36 -18 68 -31 71 -28 3 3 6 1 6 -5 0 -6 20 -17 45 -24 25 -7 45
-17 45 -22 0 -5 7 -7 15 -3 8 3 15 2 15 -3 0 -5 10 -12 23 -16 12 -4 27 -9 32
-11 6 -2 17 -5 25 -7 8 -2 29 -10 45 -16 17 -7 35 -14 42 -15 7 -1 16 -5 19
-9 4 -4 17 -7 29 -7 12 0 25 -3 29 -7 7 -7 28 -13 61 -16 11 -1 22 -5 25 -8 3
-4 21 -9 40 -12 19 -3 52 -10 73 -15 20 -6 37 -8 37 -5 0 3 8 -1 17 -8 14 -12
16 -12 8 0 -6 11 -5 12 6 5 18 -11 34 -14 96 -17 29 -1 53 -5 53 -8 0 -3 27
-6 60 -7 33 0 65 -4 70 -7 6 -3 10 -1 10 5 0 6 5 8 13 3 18 -11 110 -10 126 1
11 9 13 8 7 -3 -7 -10 -3 -12 14 -6 17 6 21 4 14 -6 -7 -12 -5 -12 9 -1 9 8
25 11 38 7 16 -6 20 -4 13 6 -6 12 -5 12 8 1 11 -9 18 -10 23 -2 4 7 12 7 25
0 10 -6 21 -6 24 -2 3 5 30 8 60 7 30 0 52 3 50 7 -3 4 0 8 5 8 6 0 11 -5 11
-11 0 -6 5 -7 12 -2 13 7 18 8 96 14 23 2 42 6 42 9 0 3 15 5 32 4 18 -1 36 3
40 9 6 9 8 8 8 -2 0 -11 3 -11 15 -1 12 10 15 10 15 -1 0 -9 3 -10 8 -4 4 6
14 10 22 10 8 -1 19 1 25 4 5 2 18 6 30 7 11 1 40 5 65 9 25 4 55 7 68 8 12 0
22 4 22 9 0 4 16 6 35 4 19 -1 35 1 35 5 0 3 11 7 25 8 14 1 36 2 50 3 14 1
25 5 25 8 0 3 19 7 42 9 22 1 49 6 58 11 10 5 20 6 24 2 4 -3 11 0 16 8 8 12
10 12 10 1 0 -11 4 -10 23 2 16 10 28 12 40 5 12 -6 17 -5 17 3 0 6 8 9 20 6
11 -3 20 -2 20 3 0 7 86 26 103 22 4 -1 7 2 7 8 0 6 3 9 8 8 15 -3 82 15 88
23 3 5 9 7 14 4 5 -3 11 -1 15 5 3 5 17 10 31 10 13 0 24 5 24 10 0 6 3 9 8 9
4 -1 10 0 15 1 4 1 10 3 15 5 15 4 70 28 129 56 35 16 64 29 66 27 2 -2 11 5
21 15 10 9 24 17 32 17 8 0 14 5 14 11 0 5 5 7 10 4 6 -3 13 1 16 9 3 9 9 14
13 12 3 -3 32 13 62 33 31 21 64 41 73 44 9 4 16 11 16 17 0 6 5 8 10 5 6 -3
13 1 16 9 3 9 12 16 18 16 7 0 28 14 46 30 18 17 40 30 47 30 8 0 12 4 8 9 -3
5 4 12 15 16 11 3 20 11 20 16 0 5 6 9 14 9 7 0 22 11 32 25 10 14 24 25 31
25 6 0 15 9 18 20 4 11 10 18 15 15 4 -3 11 2 14 11 3 8 10 12 16 9 5 -3 10
-1 10 6 0 12 38 49 51 49 4 0 11 9 14 20 3 11 10 20 14 20 5 0 27 18 49 40 22
22 38 40 36 40 -2 0 14 18 36 40 22 22 40 45 40 51 0 5 4 8 9 5 5 -3 11 4 14
15 4 14 10 18 19 13 7 -4 10 -4 6 1 -4 4 5 19 20 33 15 14 25 27 24 30 -2 2
12 21 31 42 19 22 32 41 29 44 -2 3 3 8 12 12 9 3 13 10 10 15 -3 5 -1 9 3 9
9 0 73 85 73 97 0 3 10 15 23 27 12 12 23 29 25 37 2 7 8 16 13 17 5 2 9 10 9
18 0 8 5 14 10 14 6 0 10 7 10 16 0 11 6 15 20 11 11 -3 18 -1 14 4 -3 5 -1 9
5 9 5 0 12 -4 15 -9 4 -5 17 -8 31 -6 14 1 28 -2 31 -6 3 -5 13 -5 23 1 10 5
21 6 25 3 11 -11 36 -12 36 -1 0 7 4 7 13 0 8 -7 18 -7 27 -2 9 5 19 5 27 -2
9 -7 13 -7 13 0 0 6 8 9 18 8 9 -2 20 2 24 8 5 7 8 7 8 -3 0 -11 3 -11 15 -1
8 7 15 10 15 7 0 -3 21 0 47 8 25 8 50 12 54 9 4 -2 14 2 22 10 8 8 17 13 19
10 3 -2 18 1 34 7 16 7 32 12 37 11 4 -1 7 3 7 10 0 6 3 8 6 5 4 -3 16 -1 28
5 11 7 24 11 29 10 4 -1 7 2 7 8 0 6 3 9 8 8 10 -2 64 24 80 39 8 7 17 11 22
8 4 -3 11 2 14 11 3 8 10 12 16 9 5 -3 10 -1 10 5 0 6 8 14 18 18 26 11 112
75 112 84 0 4 5 8 12 8 10 0 45 34 193 191 8 9 15 21 15 28 0 6 7 14 15 17 8
4 15 12 15 20 0 8 5 14 10 14 6 0 10 7 10 15 0 7 8 19 18 24 9 6 13 11 8 11
-5 0 -1 9 9 20 10 11 14 20 9 20 -5 0 -4 4 2 8 13 8 40 67 93 195 6 16 9 33 6
38 -4 5 -1 9 5 9 7 0 10 7 6 15 -3 8 -2 15 2 15 4 0 9 8 10 18 3 32 7 47 16
61 7 10 5 12 -3 6 -10 -6 -11 -3 -1 15 6 12 9 28 6 36 -3 8 -2 14 3 14 5 0 7
11 6 25 -2 14 1 27 6 31 5 3 7 10 3 15 -9 15 -12 59 -5 59 4 0 7 9 7 20 0 11
-4 20 -8 20 -4 0 -3 11 2 25 6 16 6 25 -1 25 -6 0 -6 7 1 20 6 11 7 20 2 20
-4 0 -8 18 -7 41 1 22 -2 42 -7 45 -4 3 -5 11 -1 19 3 8 2 23 -2 33 -7 16 -15
53 -17 80 -1 6 -5 12 -10 12 -5 0 -7 4 -4 8 6 10 -16 78 -44 139 -11 24 -20
46 -20 49 0 3 -9 19 -21 35 -11 16 -17 29 -12 29 4 0 -5 12 -20 26 -15 14 -25
29 -22 34 3 5 -3 15 -15 22 -11 7 -20 18 -20 25 0 7 -5 13 -11 13 -5 0 -8 4
-4 9 3 5 -4 12 -15 16 -11 3 -20 10 -20 15 0 5 -16 25 -35 44 -19 20 -35 33
-35 31 0 -3 -13 9 -29 25 -15 17 -33 30 -39 30 -5 0 -13 7 -16 16 -3 8 -10 12
-16 9 -5 -3 -10 -2 -10 3 0 5 -14 15 -30 22 -36 15 -61 46 -53 66 3 8 1 14 -3
14 -5 0 -9 12 -10 28 -2 54 -8 87 -17 100 -6 8 -5 12 4 12 9 0 10 3 4 8 -12 9
-15 21 -17 78 -1 24 -5 44 -9 44 -4 0 -6 8 -4 18 1 9 -2 25 -7 36 -7 13 -7 16
1 12 8 -5 8 1 1 20 -6 15 -9 33 -6 41 3 7 2 13 -3 13 -4 0 -8 12 -9 28 -1 15
-3 37 -6 50 -3 12 0 22 5 22 6 0 8 4 5 9 -3 5 1 12 10 15 8 3 12 10 9 16 -3 6
1 13 9 16 9 3 13 10 10 15 -3 5 0 9 6 9 6 0 8 5 5 10 -3 6 -2 10 4 10 5 0 12
14 16 30 4 17 11 30 16 30 5 0 8 3 8 8 -1 4 -1 9 1 12 1 3 3 16 6 29 2 14 9
30 15 38 6 7 8 13 3 13 -5 0 -2 5 6 10 12 8 12 10 1 10 -10 0 -11 3 -2 14 6 8
11 18 10 22 -1 5 0 11 1 14 1 3 3 93 4 200 1 108 5 201 9 207 4 6 4 14 0 16
-10 6 -8 321 2 336 3 6 2 11 -2 11 -15 0 -8 67 9 83 9 9 18 13 22 10 3 -4 6
-1 6 5 0 7 8 12 18 12 10 0 28 8 41 17 14 9 21 11 17 5 -5 -8 -2 -10 8 -6 9 3
16 10 16 16 0 5 3 7 8 4 4 -2 25 4 47 14 22 10 43 16 47 14 5 -3 8 0 8 5 0 6
9 11 19 11 11 0 23 5 26 10 4 6 10 8 15 5 5 -3 11 -1 15 5 4 6 11 8 16 5 5 -4
9 -1 9 4 0 6 3 10 8 9 4 -1 23 4 42 11 19 8 38 13 43 12 4 0 7 3 7 7 0 5 7 9
15 10 8 1 22 3 30 4 8 1 15 5 15 10 0 4 8 8 18 8 10 0 22 3 26 7 3 4 12 8 19
9 29 7 86 31 103 44 11 10 15 10 10 2 -4 -7 8 -4 27 7 19 11 38 17 41 14 3 -4
6 -2 6 4 0 5 6 10 13 11 22 2 42 8 63 20 12 6 24 8 28 5 3 -3 6 -1 6 6 0 7 4
10 9 6 5 -3 12 -1 16 5 3 5 16 10 28 10 l22 0 0 -429 c0 -236 2 -428 5 -426 3
2 6 -5 6 -15 0 -10 -3 -17 -6 -15 -9 5 -5 -109 4 -123 4 -7 3 -12 -1 -12 -5 0
-9 -19 -8 -42 0 -35 -3 -43 -17 -42 -10 1 -18 -2 -18 -6 0 -4 -11 -11 -25 -14
-13 -3 -35 -17 -49 -31 -14 -14 -30 -25 -36 -25 -5 0 -10 -8 -10 -18 0 -10 -5
-23 -10 -28 -12 -12 -21 -114 -11 -114 4 0 6 -13 5 -30 -1 -16 2 -27 7 -24 5
3 9 -4 9 -15 0 -12 5 -21 10 -21 6 0 10 -7 10 -15 0 -8 8 -15 17 -15 9 0 13
-3 10 -7 -4 -3 2 -12 13 -20 26 -19 25 -41 -2 -53 -13 -5 -19 -9 -15 -9 5 -1
2 -8 -5 -16 -31 -34 -36 -43 -31 -49 4 -3 2 -6 -3 -6 -6 0 -18 -26 -28 -58
-10 -31 -21 -64 -24 -72 -3 -8 -6 -18 -7 -22 -2 -5 -4 -9 -5 -10 -1 -2 -3 -14
-5 -28 -2 -14 -7 -38 -10 -55 -4 -16 -8 -75 -9 -130 0 -55 -5 -106 -9 -112 -5
-7 -4 -13 1 -13 10 0 10 -45 -1 -56 -3 -4 -2 -15 4 -25 7 -14 6 -19 -2 -19 -8
0 -8 -4 1 -15 9 -11 9 -15 1 -15 -8 0 -9 -5 -2 -19 6 -10 7 -22 3 -26 -10 -10
-9 -29 3 -37 7 -5 7 -8 0 -8 -7 0 -11 -39 -10 -105 0 -58 -4 -105 -9 -105 -5
0 -3 -6 3 -13 6 -8 8 -16 5 -19 -2 -3 -7 -120 -9 -259 -3 -140 -5 -255 -6
-256 -5 -9 -4 -30 2 -38 4 -6 4 -17 -1 -25 -5 -8 -5 -21 1 -32 5 -10 6 -18 2
-18 -9 0 -8 -86 2 -138 4 -26 3 -32 -7 -26 -7 4 -6 -1 3 -12 9 -10 15 -23 13
-29 -7 -18 43 -65 85 -80 22 -8 41 -12 41 -8 0 3 8 -1 17 -8 14 -12 16 -12 8
0 -6 11 -5 12 6 5 8 -5 39 -10 69 -12 30 -2 61 -8 69 -15 11 -9 13 -9 8 0 -5
8 5 11 37 9 24 -2 48 -6 55 -10 6 -4 11 -2 11 5 0 9 3 9 14 0 9 -8 16 -8 20
-2 4 6 15 7 30 1 14 -5 27 -5 32 0 5 5 24 10 42 12 17 1 32 5 32 8 0 3 18 6
40 5 22 -1 40 2 40 6 0 4 14 10 30 14 17 4 28 10 26 13 -5 10 20 32 28 25 3
-4 6 -1 6 5 0 7 0 13 1 15 11 30 14 87 5 92 -8 3 -7 7 2 11 6 3 9 11 5 17 -4
7 -8 58 -9 115 -1 57 -5 106 -8 109 -3 3 -1 14 5 24 5 11 6 19 2 19 -10 0 -10
161 0 177 6 9 3 11 -10 6 -16 -6 -16 -5 -4 10 7 9 10 17 5 17 -5 0 -9 50 -9
110 1 69 -3 110 -10 110 -6 0 -7 3 0 8 14 10 17 32 4 32 -8 0 -8 4 0 14 9 11
9 15 -1 19 -10 4 -10 6 1 6 11 1 11 4 1 16 -10 12 -10 15 1 15 9 0 10 3 4 8
-6 4 -11 16 -11 27 0 11 5 23 11 27 7 5 6 8 -1 8 -7 0 -11 30 -12 83 0 45 -4
143 -7 217 -4 74 -8 155 -9 180 -1 25 -5 51 -10 58 -4 7 -2 12 4 12 8 0 9 7 5
18 -4 9 -8 43 -9 74 -1 32 -5 61 -9 64 -4 4 -7 19 -7 33 0 15 -6 35 -14 46 -7
11 -14 25 -15 30 -1 19 -72 106 -81 100 -27 -17 -4 27 37 70 7 7 9 15 6 19 -4
3 -2 6 4 6 13 0 14 7 18 118 4 99 -6 146 -38 175 -11 9 -16 17 -11 17 5 0 2 5
-6 10 -11 7 -11 10 -2 10 10 0 10 5 2 20 -8 15 -8 20 2 20 9 0 9 3 -2 10 -13
9 -13 10 0 10 12 0 12 2 1 9 -9 6 -10 11 -2 15 7 4 7 15 1 31 -6 16 -5 25 3
29 9 3 8 5 -1 5 -7 1 -10 6 -7 12 10 15 11 189 2 189 -5 0 -5 5 -1 12 9 14 10
76 1 84 -3 4 -3 14 1 23 4 9 7 170 7 358 0 222 4 343 10 344 6 1 13 1 18 0 4
0 7 4 7 11 0 6 3 9 6 5 3 -3 27 1 52 9 26 8 52 16 57 17 6 2 15 5 20 8 6 4 20
5 32 4 12 -1 20 2 17 7 -5 8 9 12 34 9 6 -1 12 4 12 10 0 7 3 9 7 6 3 -4 12
-2 20 4 7 6 13 9 13 6 0 -7 121 41 138 55 6 6 12 7 12 3 0 -4 6 -2 13 4 8 6
17 8 20 4 4 -3 7 -1 7 5 0 7 9 12 20 12 11 0 20 4 20 9 0 5 11 12 25 15 14 4
25 11 25 17 0 6 5 7 10 4 6 -3 10 -1 10 5 0 6 4 9 9 6 5 -3 14 1 21 9 7 8 16
12 21 9 5 -3 9 2 9 11 0 9 5 13 10 10 6 -3 13 1 16 9 3 9 12 16 20 16 8 0 14
7 14 17 0 9 3 14 6 10 8 -8 44 25 38 34 -3 5 4 14 16 21 12 8 20 23 20 40 0
16 4 28 9 28 5 0 7 9 4 20 -3 13 0 20 8 20 11 0 11 2 -1 10 -8 5 -10 10 -3 10
6 0 10 11 8 25 -1 14 3 25 9 25 6 0 4 5 -4 10 -8 5 -10 10 -4 10 6 0 10 18 10
40 0 22 -5 40 -10 40 -6 0 -5 5 1 11 8 8 8 20 2 36 -5 14 -7 29 -3 34 3 5 0 9
-7 9 -7 0 -10 3 -7 6 8 7 -20 74 -40 97 -8 9 -12 17 -8 17 9 0 -78 85 -115
113 -13 9 -31 17 -41 17 -10 0 -18 3 -18 8 0 8 -100 47 -112 44 -5 -1 -8 3 -8
8 0 6 -9 10 -21 10 -11 0 -18 4 -15 9 4 5 -3 7 -14 4 -11 -3 -20 0 -20 6 0 6
-7 11 -15 11 -15 0 -23 3 -81 33 -17 9 -34 14 -38 10 -3 -3 -6 -1 -6 5 0 6 -7
9 -15 6 -8 -4 -15 -1 -15 6 0 6 -4 8 -10 5 -5 -3 -10 -1 -10 4 0 6 -7 11 -15
11 -8 0 -23 4 -33 9 -42 22 -154 71 -162 71 -6 0 -10 8 -10 18 0 9 -7 26 -15
36 -8 10 -12 23 -9 27 3 5 0 9 -5 9 -6 0 -11 7 -11 15 0 8 -5 15 -12 15 -6 0
-9 3 -5 6 7 7 -2 19 -64 84 -26 27 -44 52 -40 56 3 4 1 4 -6 0 -6 -3 -19 4
-27 16 -9 12 -16 19 -16 14 0 -5 -8 -2 -17 6 -32 26 -94 58 -114 58 -10 0 -19
4 -19 8 0 5 -13 9 -28 10 -39 1 -56 5 -64 17 -5 6 -8 6 -8 -1 0 -12 -29 -12
-49 1 -10 5 -12 4 -7 -3 5 -8 -1 -12 -16 -11 -13 0 -41 -3 -63 -6 -22 -3 -46
-6 -52 -7 -7 -1 -13 -4 -13 -8 0 -5 -18 -9 -57 -12 -7 -1 -13 -5 -13 -10 0 -5
-4 -7 -9 -3 -5 3 -16 -2 -25 -10 -8 -9 -17 -11 -21 -6 -3 6 -12 8 -19 5 -8 -3
-17 0 -21 5 -3 6 -11 9 -16 6 -5 -4 -12 1 -15 10 -5 13 -9 13 -22 3 -12 -10
-14 -10 -8 0 6 11 -5 17 -26 13 -5 0 -8 4 -8 9 0 6 -9 10 -20 10 -11 0 -20 5
-20 11 0 5 -4 7 -10 4 -5 -3 -10 -2 -10 4 0 6 -7 8 -15 5 -8 -4 -15 -1 -15 7
0 7 -3 9 -7 6 -3 -4 -16 -1 -28 7 -12 8 -40 20 -63 27 -23 7 -42 16 -42 21 0
4 -8 8 -18 8 -10 0 -22 4 -27 9 -6 5 -19 11 -30 13 -11 1 -22 5 -25 8 -10 11
-110 53 -125 53 -8 0 -15 3 -15 6 0 6 -18 14 -87 41 -18 7 -33 17 -33 22 0 5
-5 6 -10 3 -6 -4 -22 0 -35 9 -13 9 -31 16 -40 16 -8 0 -15 4 -15 10 0 5 -3 9
-7 9 -5 -1 -11 0 -15 1 -5 1 -11 3 -15 4 -5 1 -19 8 -33 16 -14 7 -26 13 -28
11 -1 -1 -15 5 -31 13 -16 9 -31 13 -33 10 -3 -2 -11 2 -18 11 -7 8 -18 15
-26 15 -18 0 -87 32 -96 45 -4 6 -8 6 -8 1 0 -5 -7 -3 -15 4 -8 7 -15 9 -15 5
0 -4 -6 -2 -13 4 -8 6 -17 8 -20 4 -4 -3 -7 -1 -7 6 0 7 -6 11 -12 9 -7 -3
-19 1 -26 9 -7 7 -22 13 -33 13 -10 0 -19 5 -19 10 0 6 -9 10 -20 10 -11 0
-20 4 -20 8 0 4 -12 9 -27 10 -16 1 -29 7 -31 12 -2 6 -8 10 -13 10 -6 0 -29
9 -51 20 -23 11 -48 20 -55 20 -8 0 -11 5 -7 12 4 6 3 8 -2 5 -6 -3 -25 1 -44
10 -19 8 -44 19 -55 24 -11 4 -46 19 -77 33 -31 13 -59 22 -62 19 -3 -3 -8 2
-12 11 -3 9 -10 14 -14 11 -5 -3 -24 3 -43 14 -19 11 -38 17 -41 14 -3 -4 -6
-1 -6 6 0 8 -7 11 -15 7 -8 -3 -15 -1 -15 4 0 6 -8 10 -17 10 -10 0 -27 7 -37
15 -10 8 -23 12 -27 9 -5 -3 -9 0 -9 6 0 6 -4 8 -10 5 -5 -3 -10 -1 -10 5 0 6
-4 8 -10 5 -5 -3 -10 -1 -10 5 0 6 -4 8 -10 5 -5 -3 -10 -1 -10 5 0 6 -4 9 -8
6 -5 -3 -26 3 -48 13 -91 43 -109 49 -116 45 -4 -3 -8 -1 -8 5 0 9 -68 37 -82
33 -5 -1 -8 2 -8 8 0 5 -9 10 -21 10 -11 0 -18 4 -14 9 3 6 -4 8 -15 6 -11 -2
-20 1 -20 6 0 6 -4 8 -9 5 -5 -4 -11 -2 -13 4 -2 6 -13 12 -24 14 -12 3 -40
14 -62 25 -22 11 -42 17 -46 14 -3 -4 -6 -1 -6 6 0 7 -4 9 -10 6 -5 -3 -10 -1
-10 5 0 7 -7 10 -15 6 -8 -3 -15 -1 -15 4 0 6 -9 10 -20 10 -11 0 -20 5 -20
10 0 6 -11 10 -24 10 -13 0 -26 5 -28 10 -3 9 -35 20 -65 22 -7 1 -13 5 -13
10 0 9 -40 27 -74 34 -11 2 -24 8 -30 14 -5 5 -18 10 -28 10 -10 0 -18 5 -18
10 0 6 -11 10 -24 10 -13 0 -26 5 -28 10 -2 6 -12 12 -23 14 -11 2 -45 16 -75
30 -30 13 -62 26 -70 28 -8 2 -18 7 -21 11 -3 4 -16 9 -27 10 -12 1 -22 4 -22
8 0 3 -18 12 -40 19 -22 7 -40 17 -40 22 0 4 -3 7 -7 6 -5 -2 -28 6 -53 16
-25 11 -48 20 -52 22 -5 1 -11 3 -15 4 -5 1 -11 2 -15 1 -5 0 -8 3 -8 8 0 8
-32 22 -56 25 -6 1 -18 6 -25 13 -8 6 -17 12 -21 12 -14 2 -42 13 -96 37 -29
13 -59 24 -67 24 -8 0 -15 5 -15 10 0 6 -9 10 -20 10 -11 0 -20 4 -20 8 0 5
-7 9 -15 10 -8 1 -22 3 -30 4 -8 1 -15 5 -15 9 0 3 -10 10 -22 14 -13 4 -25 8
-28 9 -3 2 -18 8 -35 15 -34 13 -58 23 -95 39 -77 34 -141 61 -148 62 -4 1
-27 11 -52 23 -41 18 -59 24 -97 29 -7 1 -13 5 -13 10 0 5 -4 6 -10 3 -5 -3
-10 -2 -10 2 0 5 -8 10 -17 11 -10 1 -30 3 -45 5 -16 2 -31 6 -34 10 -3 3 -12
3 -20 0 -8 -3 -14 -1 -14 4 0 6 -12 9 -27 8 -16 -1 -40 2 -55 6 -17 5 -29 3
-32 -4 -3 -8 -8 -7 -15 3 -8 11 -11 11 -11 2 0 -10 -5 -10 -20 -2 -11 6 -20 7
-20 2z"/>
</g>
</svg>
